<svg width="281" height="281" viewBox="0 0 281 281" fill="none" xmlns="http://www.w3.org/2000/svg">
<path d="M316.125 316.125H-35.125V-35.125H316.125V316.125Z" fill="#005AAD"/>
<path d="M199.306 144.295C143.901 140.195 88.4531 138.51 87.2593 138.447C83.8181 143.067 81.5603 151.899 82.3718 156.859C83.2225 161.94 87.1676 166.688 88.0932 176.843C88.1248 177.837 87.9387 178.88 88.2785 180.153C88.6334 181.369 90.4896 184.103 92.0468 184.465C92.2017 184.454 92.5041 184.434 92.6469 184.423C93.2122 185.571 94.3359 185.968 95.1065 185.64C96.7338 189.182 98.8307 185.294 101.154 187.536C105.016 191.035 105.721 187.834 109.06 186.837C111.621 186.923 114.849 191.242 118.207 188.226C125.1 182.185 127.565 194.098 133.558 191.266C134.783 190.725 138.405 188.291 140.755 189.945C145.547 187.26 147.251 196.457 154.545 190.608C161.564 184.978 162.395 192.636 167.298 191.886C169.533 191.489 170.364 189.922 172.59 190.166C175.693 191.528 176.239 194.707 180.367 191.687C182.879 189.726 184.538 193.725 186.581 190.434C187.301 190.844 188.474 190.567 189.153 189.481C189.295 189.506 189.604 189.558 189.758 189.585C191.255 189.383 193.457 186.885 193.957 185.692C194.637 183.863 193.927 179.084 199.103 169.865C204.377 160.378 204.058 151.659 199.306 144.295Z" fill="#0C080C"/>
<path d="M199.306 144.295C143.901 140.195 88.4531 138.51 87.2593 138.447C83.8181 143.067 81.5603 151.899 82.3718 156.859C83.2225 161.94 87.1676 166.688 88.0932 176.843C88.1248 177.837 87.9387 178.88 88.2785 180.153C88.6334 181.369 90.4896 184.103 92.0468 184.465C92.2017 184.454 92.5041 184.434 92.6469 184.423C93.2122 185.571 94.3359 185.968 95.1065 185.64C96.7338 189.182 98.8307 185.294 101.154 187.536C105.016 191.035 105.721 187.834 109.06 186.837C111.621 186.923 114.849 191.242 118.207 188.226C125.1 182.185 127.565 194.098 133.558 191.266C134.783 190.725 138.405 188.291 140.755 189.945C145.547 187.26 147.251 196.457 154.545 190.608C161.564 184.978 162.395 192.636 167.298 191.886C169.533 191.489 170.364 189.922 172.59 190.166C175.693 191.528 176.239 194.707 180.367 191.687C182.879 189.726 184.538 193.725 186.581 190.434C187.301 190.844 188.474 190.567 189.153 189.481C189.295 189.506 189.604 189.558 189.758 189.585C191.255 189.383 193.457 186.885 193.957 185.692C194.637 183.863 193.927 179.084 199.103 169.865C204.377 160.378 204.058 151.659 199.306 144.295ZM198.084 169.213C190.87 181.067 194.506 186.418 189.908 188.087C189.848 188.083 189.8 188.094 189.738 188.114C189.37 188.011 188.744 187.676 188.407 187.494C188.399 187.511 188.144 188.185 187.913 188.711C187.839 188.801 187.857 188.831 187.659 189.009C187.597 189.031 187.549 189.063 187.499 189.096C187.053 189.173 186.412 188.574 186.012 188.265C184.736 190.91 184.685 190.397 183.695 190.021C180.192 188.716 179.732 190.817 178.099 191.39C176.45 191.915 175.589 189.639 172.907 188.69C169.89 188.328 168.777 190.207 166.965 190.472C163.833 190.963 160.907 183.643 153.782 189.877C147.436 195.433 146.25 186.895 140.756 189.481C135.67 186.207 133.537 194.717 127.715 188.439C121.468 181.868 117.343 187.733 115.979 187.836C113.674 188.209 112.981 186.124 109.902 185.365C106.514 185.187 105.321 188.297 103.441 187.478C101.873 186.734 101.645 184.598 98.0182 185.531C96.8056 185.85 96.7902 186.03 95.8981 183.542C95.473 183.805 94.7705 184.338 94.3322 184.214C94.2863 184.175 94.2405 184.137 94.1821 184.11C93.7619 183.479 93.8371 183.278 93.5955 182.525C93.8294 182.42 92.7479 182.909 92.2072 183.002C92.1607 182.976 92.1017 182.961 92.054 182.958C91.8205 182.85 91.5154 182.511 91.2253 182.114C89.3777 179.465 89.6079 180.619 89.5532 176.824C88.1446 162.172 77.0277 155.415 87.3076 138.665C123.219 141.286 162.045 143.414 199.269 144.557C204.138 155.203 202.395 161.991 198.084 169.213Z" fill="black"/>
<path d="M254.423 254.612C251.8 248.944 244.636 240.545 236.676 238.224C226.837 235.355 204.626 231.885 196.39 229.957C189.789 228.409 176.492 216.469 171.832 212.461C170.996 211.744 170.312 210.265 170.295 209.165C170.129 196.19 175.305 161.724 175.305 161.724H140.471H105.638C105.638 161.724 110.814 196.189 110.646 209.165C110.633 210.265 109.945 211.744 109.111 212.461C104.451 216.469 91.1543 228.409 84.5525 229.957C76.3158 231.885 54.1051 235.473 44.2669 238.343C36.3049 240.662 29.1429 248.943 26.5204 254.611C22.0921 264.174 21.0459 281.481 21.0459 296.409H140.471H259.896C259.896 281.482 258.848 264.175 254.423 254.612Z" fill="#F0C7B1"/>
<path d="M211.118 235.838C240.188 240.068 252.422 246.238 256.253 296.412H259.896C259.896 281.484 258.848 264.177 254.422 254.613C251.8 248.945 244.636 240.546 236.676 238.226C226.837 235.356 204.626 231.886 196.39 229.958C189.789 228.41 174.605 215.544 170.543 210.432C174.556 216.049 185.819 229.068 195.687 232.478C200.408 234.109 204.339 234.852 211.118 235.838ZM85.2559 232.478C95.124 229.069 106.386 216.049 110.4 210.432C106.339 215.543 91.1555 228.41 84.5525 229.958C76.317 231.886 54.1063 235.474 44.2669 238.344C36.3072 240.663 29.1429 248.944 26.5204 254.612C22.0945 264.175 21.0471 281.482 21.0471 296.411H24.6896C28.4969 246.558 40.7821 240.062 69.825 235.837C76.6024 234.852 80.5351 234.109 85.2559 232.478Z" fill="#FFE4D6"/>
<path d="M135.271 252.035C135.271 252.035 129.211 250.113 126.812 249.193C114.334 244.406 73.7935 241.303 73.7935 241.303C73.7935 241.303 116.493 242.998 125.915 244.622C125.368 238.929 122.312 220.732 122.312 220.732C122.312 220.732 128.462 240.813 129.966 245.879C130.771 248.588 135.271 252.035 135.271 252.035ZM148.168 250.432C148.062 250.519 147.94 250.633 147.807 250.752C147.942 250.65 148.064 250.544 148.168 250.432ZM135.271 252.035C135.271 252.035 138.726 255.608 140.463 255.653C142.744 255.714 146.228 252.191 147.808 250.752C146.298 251.895 142.841 252.413 141.467 252.467C139.879 252.528 135.271 252.035 135.271 252.035ZM160.372 243.055C158.527 243.351 155.134 243.997 155.134 243.997L157.865 226.215C157.094 229.882 152.522 245.575 148.168 250.432C150.449 248.502 155.522 247.576 158.109 247.203C170.333 245.43 170.328 245.432 207.147 241.303C207.147 241.303 172.429 241.118 160.372 243.055Z" fill="#E1AC8F"/>
<path d="M151.859 220.078C157.169 218.093 163.351 213.313 169.405 207.454C169.565 198.051 171.706 181.013 173.142 170.544C154.36 168.375 126.581 168.382 107.802 170.559C109.236 181.028 111.375 198.047 111.534 207.446C117.59 213.309 123.776 218.093 129.088 220.079C134.43 222.076 146.517 222.076 151.859 220.078Z" fill="url(#paint0_linear)"/>
<path d="M201.52 230.084C200.124 250.997 202.449 274.687 202.449 274.687C192.23 270.265 172.667 254.292 167.37 252.995C162.027 255.849 158.96 255.765 157.637 256.101C149.813 257.411 137.823 259.437 128.577 254.73C126.121 254.775 123.441 255.662 120.811 257.636C103.718 270.443 92.044 271.593 83.1421 277.749C85.2941 241.652 81.8678 242.065 81.0605 229.728C79.4925 229.138 79.2656 228.909 78.4356 227.422C64.9585 231.608 38.691 235.346 25.5662 248.399C13.8661 260.035 10.0851 278.373 12.0055 294.997C84.0139 294.219 196.605 293.283 268.972 293.996C270.028 240.669 241.608 240.456 201.52 230.084Z" fill="black"/>
<path d="M166.814 255.797C164.115 255.124 161.99 255.707 159.965 255.706C161.656 255.395 164.076 254.755 167.371 252.995C172.032 254.139 191.26 268.649 201.927 274.65C189.851 271.546 177.245 258.995 166.814 255.797ZM132.897 256.435C131.445 256.004 130.002 255.453 128.577 254.729C126.121 254.774 123.441 255.66 120.811 257.634C107.253 267.792 92.1849 273.721 84.1262 277.525C124.188 266.503 117.504 256.615 132.897 256.435Z" fill="#265E68"/>
<path d="M79.7851 228.528C37.5218 240.614 15.5154 245.605 12.1918 294.993C12.1297 294.994 12.0664 294.995 12.0031 294.995C11.2758 288.686 11.3725 282.131 12.4091 275.788C14.1002 265.415 18.3063 255.619 25.565 248.398C38.6898 235.344 64.9573 231.606 78.4344 227.421C78.4798 227.505 79.7421 228.449 79.7851 228.528ZM201.52 230.084C201.509 230.249 201.262 231.249 201.252 231.411C234.572 241.155 266.09 243.447 268.405 293.989C268.59 293.99 268.783 293.992 268.97 293.993C270.028 240.669 239.381 236.667 201.52 230.084Z" fill="white"/>
<path d="M83.2006 277.959C85.4255 240.853 79.7695 237.516 81.1608 222.248C85.5975 219.65 89.9983 218.856 92.2184 216.272C102.813 203.882 101.574 198.591 108.459 195.351C109.828 201.08 110.658 214.528 110.666 214.704C115.863 230.108 119.402 236.691 123.661 242.883C126.134 246.471 131.415 251.976 132.678 255.722C130.139 254.448 125.74 254.445 120.865 257.841C112.961 263.3 115.816 264.599 99.3481 270.573C93.507 272.675 88.4661 275.53 83.2006 277.959ZM201.16 245.495C201.155 245.116 201.583 226.007 201.633 224.419C193.16 221.315 184.142 197.81 172.568 196.217C169.151 217.59 173.209 209.906 163.03 235.788C160.516 242.182 159.567 244.598 159.102 255.198C159.363 255.13 159.813 255.009 159.836 255.009C163.344 254.085 164.515 253.53 166.646 252.954C167.736 253.179 169.548 254.111 169.885 254.379L169.876 254.365C179.706 259.613 188.875 269.078 202.503 274.9C202.778 269.763 201.16 257.021 201.16 245.495Z" fill="white"/>
<path d="M161.259 254.615C160.826 254.74 160.363 254.867 159.836 255.007C159.812 255.007 159.363 255.129 159.102 255.196C159.567 244.596 160.516 242.18 163.03 235.786C173.209 209.904 169.151 217.589 172.568 196.214C174.886 196.532 177.103 197.904 179.234 199.898C177.768 211.244 174.648 220.201 170.103 230.432C175.43 227.42 181.207 223.731 186.43 220.847C175.571 230.622 164.719 240.399 161.259 254.615ZM132.678 255.722C131.414 251.976 126.134 246.471 123.661 242.883C119.402 236.691 115.863 230.109 110.666 214.704C110.658 214.528 109.828 201.08 108.459 195.351C104.105 197.398 104.47 198.88 101.567 203.842C103.905 215.936 108.631 223.625 115.333 233.68C109.62 229.914 101.645 223.475 93.7518 219.532C107.049 229.502 116.609 242.276 125.582 255.488C128.495 254.602 130.996 254.881 132.678 255.722Z" fill="#DEDBD4"/>
<path d="M123.769 242.81C117.276 233.367 114.323 224.789 110.797 214.698C110.797 214.698 110.222 200.803 108.812 195.164C101.717 198.42 102.774 202.408 92.1181 214.868C89.105 218.376 85.0147 219.848 81.0283 222.237C80.006 233.462 83.1576 242.042 83.3571 252.217C83.6413 259.712 83.6114 269.032 83.0549 278.171C88.3693 275.732 93.4747 272.824 99.3923 270.697C115.879 264.719 113.047 263.399 120.94 257.95C126.034 254.399 130.516 254.631 132.899 255.991C131.821 252.202 126.314 246.502 123.769 242.81ZM105.614 266.778C95.1586 270.894 98.026 268.98 83.6723 277.211C87.6826 248.765 81.5944 235.608 81.5944 222.787C85.7241 220.651 89.6914 219.488 92.7367 216.002C104.137 202.891 101.762 199.681 108.074 195.824C108.47 199.586 108.785 203.375 108.983 207.176C109.656 220.627 107.862 211.44 113.154 225.301C120.975 245.786 128.439 247.914 131.977 254.993C121.935 250.617 114.786 263.72 105.614 266.778ZM201.294 245.493C201.287 244.969 201.759 224.44 201.768 224.329C193.279 221.391 183.845 197.491 172.065 196.073C171.069 202.195 169.892 215.449 169.892 215.449C161.861 242.35 159.722 237.69 158.961 255.375C158.965 255.375 159.813 255.14 159.869 255.136C163.218 254.252 164.491 253.695 166.618 253.087C166.953 253.152 167.5 253.32 167.828 253.464C167.873 253.488 169.858 254.466 169.815 254.48C179.707 259.766 188.849 269.258 202.626 275.093C202.947 270.065 201.294 257.145 201.294 245.493ZM193.123 268.489C183.902 262.961 177.519 256.261 167.736 252.267C165.086 251.15 161.677 253.424 159.346 255.136C160.632 243.889 160.19 246.441 162.58 239.981C173.59 210.081 170.51 227.004 173.091 196.715C183.187 200.085 192.427 221.737 200.702 224.406C198.043 255.866 201.61 267.022 202.031 274.158C198.956 272.503 196.111 270.278 193.123 268.489Z" fill="#AFA9A0"/>
<path d="M79.7811 113.467C78.1639 110.438 72.8104 102.1 68.3339 102.996C64.6935 103.728 64.4775 108.738 64.0444 111.686C63.4112 116.011 62.8665 123.574 63.885 126.708C64.8646 129.717 68.1545 135.604 70.2683 137.895C72.8705 140.704 76.8033 149.429 77.2962 150.338C78.0712 151.776 79.6673 153.859 82.285 153.838C85.9591 153.81 89.3045 150.514 89.6793 148.862C91.7052 139.892 83.9901 121.348 79.7811 113.467Z" fill="#F0C7B1" stroke="#C27B55" stroke-width="3.825"/>
<path d="M77.0894 131.26C76.9541 130.58 77.1923 129.456 77.4249 128.373C77.6357 127.386 77.8341 126.452 77.7783 125.782C77.5643 123.272 75.8733 118.435 74.7424 115.802C73.4386 112.773 71.2769 108.93 68.3695 107.816C67.1691 107.355 66.3392 107.787 65.8489 108.243C65.4869 108.578 65.3876 108.991 65.4971 109.047C65.6078 109.101 65.8787 108.77 66.2653 108.466C66.5821 108.217 65.662 108.387 66.2653 108.466C65.9559 109.694 64.8398 115.928 65.1424 120.537C65.3805 124.164 66.0647 126.899 66.2976 127.315C66.3123 127.742 66.3525 128.161 66.4232 128.569C67.3426 133.891 74.7532 141.176 76.4585 143.23C76.7735 143.609 77.1129 143.842 77.2034 143.758C77.2939 143.675 77.1062 143.307 76.7938 142.926C75.1092 140.886 67.7488 133.625 66.8602 128.491C65.9175 123.044 72.2262 115.37 73.2533 113.731C73.6899 114.549 74.0567 115.331 74.3359 115.982C74.5568 116.492 74.7969 117.09 75.0453 117.735C74.447 118.586 68.5586 124.723 69.701 129.941C70.1239 131.866 74.0315 134.524 75.5576 135.275C76.3969 135.689 76.69 136.257 77.0311 136.914C77.4262 137.681 76.9312 139.574 78.3268 140.257C78.6113 140.396 78.8711 140.46 79.1036 140.473C79.5067 140.494 79.8202 140.355 80.0552 140.183C80.0621 140.507 80.0392 140.922 80.0071 141.306C79.9667 141.803 80.0251 142.035 80.1451 142.051C80.2673 142.068 80.4064 141.856 80.4477 141.365C80.4999 140.757 80.5357 140.005 80.4461 139.638C80.1809 138.561 79.267 137.311 78.297 135.989C77.3438 134.689 77.2997 132.314 77.0894 131.26ZM66.3247 126.021C63.9572 117.618 68.6817 110.324 69.3696 109.224C70.5516 109.764 72.288 112 73.0088 113.284C72.3843 114.247 66.7327 120.474 66.3247 126.021ZM78.519 139.854C77.2551 139.235 77.801 137.443 77.4211 136.706C77.0757 136.04 76.7196 135.351 75.7485 134.872C75.5387 134.768 75.3087 134.615 75.074 134.44C72.2551 127.027 75.969 124.047 76.8927 123.446C77.1194 124.345 77.2796 125.168 77.3372 125.825C77.3871 126.425 77.1857 127.369 76.9921 128.28C76.7499 129.409 76.5009 130.579 76.6553 131.352C76.8867 132.504 76.9598 134.92 77.9419 136.261C78.8136 137.45 79.7085 138.676 79.985 139.652C79.8342 139.835 79.3678 140.27 78.519 139.854Z" fill="#C27B55"/>
<path d="M209.054 120.242C210.98 117.398 217.176 109.666 221.533 111.025C225.077 112.134 224.768 117.139 224.892 120.116C225.07 124.483 224.82 132.062 223.48 135.072C222.192 137.962 218.303 143.473 215.963 145.531C213.081 148.052 208.257 156.318 207.673 157.171C206.752 158.52 204.947 160.425 202.344 160.13C198.694 159.718 195.712 156.091 195.511 154.409C194.435 145.275 204.047 127.64 209.054 120.242Z" fill="#F0C7B1" stroke="#C27B55" stroke-width="3.825"/>
<path d="M208.178 142.797C207.076 144.01 206.036 145.157 205.66 146.201C205.531 146.558 205.489 147.31 205.476 147.918C205.467 148.412 205.583 148.637 205.708 148.632C205.83 148.629 205.911 148.405 205.923 147.906C205.931 147.521 205.951 147.106 205.991 146.784C206.207 146.979 206.504 147.15 206.908 147.172C207.14 147.184 207.406 147.147 207.704 147.039C209.161 146.504 208.868 144.569 209.341 143.849C209.749 143.232 210.099 142.696 210.979 142.373C212.575 141.786 216.739 139.552 217.361 137.681C219.042 132.61 213.828 125.891 213.322 124.983C213.634 124.367 213.937 123.798 214.208 123.314C214.556 122.696 215.001 121.955 215.522 121.188C216.372 122.926 221.843 131.215 220.337 136.536C218.916 141.549 210.838 148.001 208.949 149.853C208.598 150.2 208.371 150.545 208.453 150.638C208.536 150.731 208.897 150.535 209.249 150.191C211.159 148.326 219.29 141.855 220.76 136.659C220.875 136.26 220.96 135.847 221.019 135.425C221.291 135.036 222.259 132.388 222.875 128.805C223.658 124.252 223.199 117.936 223.02 116.683C223.628 116.667 222.731 116.402 223.02 116.683C223.374 117.025 223.609 117.383 223.723 117.34C223.838 117.296 223.782 116.877 223.459 116.505C223.017 116 222.237 115.483 220.995 115.816C217.987 116.62 215.435 120.216 213.821 123.092C212.421 125.593 210.235 130.226 209.76 132.7C209.634 133.361 209.734 134.31 209.841 135.314C209.957 136.415 210.078 137.558 209.872 138.22C209.553 139.245 209.262 141.603 208.178 142.797ZM215.81 120.768C216.662 119.566 218.622 117.525 219.853 117.111C220.423 118.277 224.359 126.024 221.127 134.134C221.301 128.574 216.331 121.791 215.81 120.768ZM206.117 146.26C206.493 145.318 207.512 144.192 208.503 143.101C209.619 141.87 209.945 139.475 210.296 138.354C210.529 137.601 210.405 136.411 210.283 135.263C210.185 134.337 210.083 133.377 210.196 132.785C210.32 132.138 210.566 131.336 210.885 130.465C211.741 131.16 215.123 134.513 211.545 141.589C211.294 141.739 211.049 141.867 210.828 141.949C209.813 142.324 209.387 142.971 208.972 143.598C208.517 144.291 208.874 146.131 207.553 146.613C206.665 146.941 206.246 146.46 206.117 146.26Z" fill="#C27B55"/>
<path d="M194.435 169.657C185.564 182.163 165.024 204.386 151.168 208.723C145.728 210.427 133.659 209.794 128.428 207.531C115.102 201.769 96.9996 177.519 89.483 164.157C82.0953 151.025 74.7883 105.641 74.7786 105.576C73.5382 99.5781 73.0336 93.3246 73.3597 86.9198C75.4099 46.5907 109.573 15.5599 149.669 17.5979C189.769 19.6361 220.608 53.9706 218.554 94.2995C218.23 100.704 217.095 106.874 215.255 112.715C215.231 112.778 203.185 157.32 194.435 169.657Z" fill="#F0C7B1"/>
<path d="M161.83 19.2661C193.629 28.4703 216.083 58.7562 214.213 93.4154C213.867 99.818 212.712 105.986 210.852 111.82C210.834 111.883 199.699 156.301 190.979 168.589C182.105 181.092 162.488 202.479 148.633 206.818C146.839 207.38 142.569 207.819 139.818 207.675C137.066 207.531 132.867 206.648 131.141 205.901C117.815 200.138 100.54 176.817 93.0236 163.455C85.636 150.323 79.2031 104.985 79.1934 104.92C77.953 98.9233 77.4484 92.6686 77.7745 86.265C79.5374 51.6001 105.031 23.8271 137.621 17.9974C102.942 22.0003 75.1967 50.7017 73.3549 86.9195C73.0288 93.3232 73.5334 99.5766 74.7737 105.576C74.7846 105.641 82.0905 151.025 89.4781 164.157C96.9947 177.52 115.098 201.768 128.424 207.531C131.042 208.665 135.369 209.386 139.72 209.611C144.068 209.84 148.442 209.576 151.163 208.723C165.019 204.384 185.557 182.16 194.43 169.657C203.15 157.369 215.161 112.998 215.176 112.934C217.037 107.098 218.192 100.932 218.538 94.5282C220.494 58.3164 195.9 26.872 161.83 19.2661Z" fill="#E8B9A0"/>
<path d="M194.435 169.657C185.564 182.163 165.024 204.386 151.168 208.723C145.728 210.427 133.659 209.794 128.428 207.531C115.102 201.768 96.9996 177.519 89.483 164.157C82.0953 151.025 74.7883 105.641 74.7786 105.576C73.5382 99.5781 73.0336 93.3246 73.3597 86.9198C75.4099 46.5907 109.573 15.5599 149.669 17.5979C189.769 19.6361 220.608 53.9706 218.554 94.2995C218.23 100.704 217.095 106.874 215.255 112.715C215.231 112.778 203.185 157.32 194.435 169.657Z" stroke="#C27B55" stroke-width="3.825"/>
<path d="M141.15 186.765C137.764 186.76 136.976 183.254 136.976 183.254C136.976 183.254 141.629 184.174 145.336 183.27C145.337 183.272 144.13 186.772 141.15 186.765Z" fill="url(#paint1_linear)"/>
<path d="M141.63 184.175C139.258 184.17 137.145 183.848 137.012 183.827C136.849 183.801 136.737 183.65 136.762 183.488C136.789 183.325 136.947 183.219 137.103 183.238C137.152 183.244 141.962 183.977 145.16 183.258C145.318 183.228 145.48 183.323 145.517 183.484C145.554 183.645 145.453 183.804 145.292 183.841C144.162 184.095 142.861 184.177 141.63 184.175Z" fill="#C27B55"/>
<path d="M120.832 170.575C120.832 170.575 135.685 173.142 140.676 173.422C146.105 173.725 163.764 172.856 163.764 172.856C158.468 176.801 152.671 180.557 140.011 179.965C128.687 179.436 126 175.171 120.832 170.575Z" fill="white"/>
<path d="M120.832 170.575C120.832 170.575 135.685 173.142 140.676 173.422C146.105 173.725 163.764 172.856 163.764 172.856C158.468 176.801 152.671 180.557 140.011 179.965C128.687 179.436 126 175.171 120.832 170.575Z" stroke="#C27B55" stroke-width="1.9125"/>
<path d="M99.0733 112.3C98.6127 109.543 105.512 107.886 114.423 109.456C123.332 111.026 129.27 116.84 128.306 119.564C127.773 121.074 115.415 122.769 111.13 122.068C106.786 121.356 100.186 118.956 99.0733 112.3Z" fill="url(#paint2_radial)"/>
<path d="M121.031 115.53C120.827 119.482 117.457 122.515 113.506 122.304C109.555 122.093 106.516 118.717 106.72 114.766C106.924 110.814 110.294 107.781 114.245 107.992C118.196 108.202 121.235 111.578 121.031 115.53Z" fill="#4E60A3"/>
<path opacity="0.7" d="M113.44 108.024C113.413 108.026 113.384 108.028 113.355 108.03C113.381 108.193 113.406 108.357 113.431 108.52C113.432 108.356 113.438 108.189 113.44 108.024ZM113.43 108.519C113.39 110.875 113.417 112.977 113.774 113.755C114.026 112.936 113.779 110.85 113.43 108.519ZM113.775 113.757C113.713 113.953 113.628 114.085 113.507 114.124C113.385 114.163 113.238 114.103 113.074 113.978C113.113 114.18 113.1 114.335 113.008 114.427C112.917 114.519 112.762 114.535 112.558 114.497C112.685 114.659 112.746 114.804 112.71 114.927C112.671 115.049 112.539 115.135 112.346 115.197C112.531 115.282 112.654 115.382 112.677 115.507C112.701 115.633 112.624 115.771 112.482 115.918C112.686 115.904 112.841 115.938 112.92 116.039C112.999 116.14 112.996 116.297 112.938 116.493C113.112 116.386 113.263 116.344 113.379 116.397C113.497 116.448 113.568 116.588 113.605 116.791C113.711 116.615 113.825 116.505 113.955 116.499C114.08 116.489 114.209 116.583 114.336 116.744C114.348 116.538 114.399 116.389 114.51 116.322C114.619 116.255 114.774 116.277 114.961 116.361C114.877 116.175 114.853 116.02 114.919 115.908C114.985 115.798 115.134 115.745 115.34 115.732C115.178 115.605 115.081 115.479 115.091 115.35C115.097 115.222 115.204 115.106 115.38 115C115.179 114.964 115.038 114.896 114.983 114.779C114.93 114.663 114.971 114.509 115.076 114.333C114.879 114.395 114.723 114.401 114.622 114.322C114.519 114.244 114.484 114.09 114.495 113.885C114.354 114.031 114.216 114.109 114.09 114.085C113.962 114.062 113.859 113.944 113.775 113.757ZM114.494 113.884C115.099 113.276 115.85 111.313 116.623 109.088C115.493 111.154 114.54 113.028 114.494 113.884ZM116.622 109.088C116.701 108.946 116.781 108.802 116.857 108.657C116.833 108.648 116.808 108.635 116.784 108.623C116.73 108.779 116.676 108.935 116.622 109.088ZM115.076 114.333C115.893 114.075 117.471 112.685 119.189 111.075C117.23 112.378 115.514 113.595 115.076 114.333ZM119.189 111.075C119.313 110.991 119.441 110.908 119.567 110.825C119.552 110.803 119.533 110.784 119.52 110.764C119.411 110.866 119.301 110.972 119.189 111.075ZM115.378 115C116.223 115.149 118.266 114.652 120.538 114.025C118.195 114.271 116.112 114.55 115.378 115ZM120.538 114.026C120.67 114.014 120.808 114 120.943 113.985C120.939 113.962 120.935 113.939 120.93 113.916C120.8 113.953 120.666 113.99 120.538 114.026ZM115.338 115.731C116.016 116.259 118.056 116.766 120.355 117.265C118.17 116.393 116.195 115.674 115.338 115.731ZM120.356 117.265C120.467 117.31 120.58 117.357 120.69 117.399C120.697 117.379 120.703 117.361 120.707 117.341C120.593 117.317 120.473 117.291 120.356 117.265ZM114.961 116.36C115.318 117.141 116.889 118.54 118.692 120.052C117.161 118.262 115.748 116.707 114.961 116.36ZM118.694 120.05C118.76 120.128 118.829 120.208 118.895 120.287C118.908 120.273 118.919 120.263 118.933 120.25C118.853 120.184 118.77 120.116 118.694 120.05ZM114.337 116.742C114.289 117.6 115.03 119.566 115.925 121.744C115.401 119.448 114.872 117.414 114.337 116.742ZM115.925 121.745C115.945 121.836 115.967 121.929 115.986 122.023C116.004 122.016 116.016 122.012 116.033 122.008C115.998 121.92 115.961 121.83 115.925 121.745ZM113.606 116.79C113.166 117.529 112.907 119.612 112.687 121.957C113.29 119.681 113.767 117.633 113.606 116.79ZM112.687 121.957C112.662 122.046 112.641 122.135 112.617 122.226C112.634 122.231 112.647 122.231 112.663 122.235C112.67 122.143 112.68 122.048 112.687 121.957ZM112.939 116.492C112.203 116.94 111.006 118.668 109.722 120.641C111.313 118.906 112.688 117.314 112.939 116.492ZM109.722 120.641C109.655 120.713 109.585 120.789 109.517 120.861C109.532 120.871 109.545 120.879 109.561 120.892C109.613 120.808 109.669 120.724 109.722 120.641ZM112.485 115.919C111.626 115.974 109.763 116.946 107.709 118.096C109.925 117.3 111.879 116.531 112.485 115.919ZM107.708 118.098C107.603 118.135 107.496 118.173 107.387 118.213C107.394 118.229 107.403 118.246 107.412 118.262C107.512 118.208 107.61 118.153 107.708 118.098ZM112.347 115.198C111.563 114.85 109.46 114.846 107.106 114.91C109.438 115.234 111.528 115.459 112.347 115.198ZM107.106 114.91C106.979 114.892 106.848 114.873 106.723 114.856C106.721 114.878 106.718 114.901 106.719 114.922C106.85 114.917 106.98 114.913 107.106 114.91ZM112.559 114.499C112.029 113.827 110.171 112.847 108.059 111.81C109.971 113.178 111.715 114.351 112.559 114.499ZM108.059 111.81C107.939 111.724 107.818 111.637 107.696 111.551C107.684 111.573 107.671 111.595 107.658 111.615C107.793 111.68 107.928 111.745 108.059 111.81ZM113.076 113.978C112.918 113.135 111.726 111.403 110.338 109.502C111.395 111.605 112.395 113.452 113.076 113.978ZM110.338 109.502C110.266 109.361 110.195 109.217 110.123 109.074C110.099 109.088 110.075 109.102 110.054 109.117C110.147 109.245 110.246 109.374 110.338 109.502Z" fill="url(#paint3_radial)"/>
<path opacity="0.4" d="M115.297 108.143C115.269 108.138 115.242 108.132 115.214 108.127C115.197 108.291 115.178 108.456 115.16 108.619C115.204 108.461 115.252 108.301 115.297 108.143ZM115.159 108.618C114.512 110.883 113.992 112.921 114.137 113.766C114.592 113.039 114.893 110.96 115.159 108.618ZM114.136 113.766C114.026 113.94 113.911 114.045 113.782 114.052C113.655 114.057 113.529 113.962 113.404 113.799C113.389 114.002 113.336 114.15 113.224 114.215C113.113 114.28 112.957 114.255 112.772 114.166C112.853 114.356 112.874 114.512 112.806 114.62C112.737 114.729 112.588 114.778 112.385 114.787C112.542 114.916 112.635 115.044 112.624 115.173C112.615 115.3 112.505 115.414 112.33 115.518C112.53 115.557 112.671 115.631 112.721 115.747C112.772 115.864 112.729 116.016 112.621 116.19C112.817 116.132 112.974 116.131 113.073 116.211C113.173 116.292 113.205 116.445 113.189 116.652C113.336 116.51 113.474 116.432 113.602 116.459C113.727 116.482 113.827 116.606 113.907 116.796C113.972 116.599 114.06 116.47 114.185 116.433C114.307 116.397 114.452 116.459 114.611 116.589C114.578 116.387 114.595 116.23 114.687 116.14C114.779 116.051 114.937 116.039 115.14 116.078C115.016 115.914 114.955 115.768 114.997 115.646C115.037 115.524 115.171 115.44 115.369 115.382C115.182 115.296 115.064 115.193 115.041 115.066C115.02 114.939 115.099 114.802 115.246 114.659C115.04 114.668 114.888 114.633 114.811 114.531C114.732 114.429 114.738 114.272 114.801 114.078C114.626 114.181 114.473 114.221 114.357 114.166C114.237 114.11 114.17 113.969 114.136 113.766ZM114.799 114.077C115.54 113.645 116.772 111.943 118.096 109.995C116.47 111.698 115.065 113.26 114.799 114.077ZM118.096 109.994C118.208 109.878 118.323 109.76 118.435 109.64C118.413 109.623 118.393 109.604 118.372 109.586C118.28 109.724 118.187 109.861 118.096 109.994ZM115.244 114.66C116.101 114.622 117.986 113.687 120.061 112.577C117.83 113.33 115.858 114.061 115.244 114.66ZM120.06 112.576C120.203 112.529 120.346 112.481 120.491 112.434C120.48 112.408 120.468 112.385 120.461 112.362C120.328 112.433 120.195 112.507 120.06 112.576ZM115.364 115.383C116.141 115.747 118.244 115.795 120.599 115.778C118.273 115.408 116.189 115.138 115.364 115.383ZM120.599 115.777C120.732 115.8 120.867 115.821 121.001 115.842C121.002 115.819 121.005 115.796 121.007 115.773C120.871 115.775 120.733 115.776 120.599 115.777ZM115.137 116.079C115.654 116.765 117.495 117.782 119.586 118.858C117.7 117.45 115.979 116.245 115.137 116.079ZM119.585 118.858C119.681 118.931 119.777 119.005 119.873 119.074C119.884 119.057 119.895 119.04 119.905 119.022C119.8 118.97 119.691 118.914 119.585 118.858ZM114.608 116.59C114.751 117.435 115.907 119.193 117.258 121.122C116.241 118.995 115.279 117.127 114.608 116.59ZM117.258 121.119C117.303 121.211 117.347 121.306 117.393 121.399C117.407 121.389 117.422 121.382 117.438 121.373C117.378 121.289 117.317 121.202 117.258 121.119ZM113.907 116.797C113.64 117.612 113.846 119.703 114.147 122.039C114.233 119.685 114.25 117.584 113.907 116.797ZM114.146 122.039C114.142 122.132 114.139 122.228 114.134 122.323C114.151 122.321 114.167 122.32 114.184 122.321C114.172 122.228 114.159 122.132 114.146 122.039ZM113.189 116.653C112.572 117.252 111.783 119.197 110.964 121.406C112.135 119.364 113.126 117.509 113.189 116.653ZM110.963 121.406C110.917 121.485 110.871 121.566 110.826 121.647C110.84 121.655 110.853 121.659 110.868 121.667C110.899 121.582 110.932 121.491 110.963 121.406ZM112.62 116.192C111.794 116.435 110.19 117.794 108.439 119.367C110.427 118.103 112.166 116.921 112.62 116.192ZM108.44 119.367C108.357 119.419 108.271 119.476 108.187 119.527C108.198 119.541 108.209 119.552 108.219 119.567C108.291 119.501 108.366 119.435 108.44 119.367ZM112.33 115.521C111.486 115.352 109.436 115.809 107.153 116.388C109.501 116.193 111.586 115.955 112.33 115.521ZM107.153 116.39C107.042 116.4 106.928 116.407 106.813 116.419C106.816 116.437 106.821 116.455 106.826 116.472C106.936 116.447 107.045 116.417 107.153 116.39ZM112.384 114.79C111.716 114.25 109.687 113.702 107.397 113.155C109.566 114.071 111.525 114.83 112.384 114.79ZM107.397 113.155C107.278 113.105 107.157 113.053 107.04 113.002C107.033 113.025 107.024 113.046 107.019 113.066C107.147 113.095 107.274 113.126 107.397 113.155ZM112.772 114.169C112.432 113.382 110.893 111.955 109.119 110.406C110.612 112.224 111.994 113.808 112.772 114.169ZM109.118 110.407C109.025 110.294 108.93 110.179 108.836 110.064C108.818 110.082 108.799 110.099 108.783 110.116C108.896 110.213 109.009 110.31 109.118 110.407ZM113.404 113.8C113.47 112.945 112.769 110.963 111.917 108.769C112.394 111.073 112.883 113.116 113.404 113.8ZM111.917 108.769C111.885 108.614 111.854 108.455 111.821 108.298C111.796 108.305 111.769 108.314 111.745 108.322C111.801 108.471 111.86 108.621 111.917 108.769Z" fill="url(#paint4_radial)"/>
<path d="M116.678 115.288C116.597 116.838 115.275 118.028 113.725 117.947C112.176 117.866 110.983 116.544 111.064 114.994C111.146 113.444 112.47 112.252 114.019 112.333C115.569 112.415 116.759 113.737 116.678 115.288Z" fill="#4E60A3"/>
<path opacity="0.9" d="M116.678 115.288C116.597 116.838 115.275 118.028 113.725 117.947C112.176 117.866 110.983 116.544 111.064 114.994C111.146 113.444 112.47 112.252 114.019 112.333C115.569 112.415 116.759 113.737 116.678 115.288Z" fill="black"/>
<path opacity="0.5" d="M109.784 118.213C110.338 117.881 111.058 118.064 111.389 118.617C111.72 119.172 111.54 119.892 110.984 120.223C110.429 120.556 109.71 120.375 109.379 119.819C109.048 119.265 109.229 118.544 109.784 118.213Z" fill="url(#paint5_linear)"/>
<path opacity="0.5" d="M116.109 114.866C115.787 115.296 114.933 115.2 114.2 114.651C113.466 114.102 113.134 113.306 113.456 112.877L113.456 112.876C113.777 112.445 114.632 112.541 115.364 113.092C116.099 113.64 116.431 114.434 116.109 114.866Z" fill="url(#paint6_linear)"/>
<path opacity="0.75" d="M119.578 113.853C118.846 114.859 117.092 114.829 115.665 113.788C114.236 112.747 113.673 111.088 114.406 110.083C115.138 109.078 116.892 109.108 118.319 110.148C119.746 111.19 120.31 112.85 119.578 113.853Z" fill="url(#paint7_linear)"/>
<path d="M88.9564 112.34C89.24 125.389 101.361 141.193 112.022 140.141C124.536 140.923 137.397 132.061 138.299 114.844C139.201 97.6259 133.89 82.8881 114.761 81.8855C101.046 81.1655 89.8587 95.1225 88.9564 112.34ZM99.0733 112.3C98.6127 109.543 105.512 107.886 114.423 109.456C123.332 111.026 129.27 116.84 128.306 119.564C127.773 121.074 115.415 122.769 111.13 122.068C106.786 121.356 100.186 118.956 99.0733 112.3Z" fill="#F0C7B1"/>
<path d="M111.13 122.068C115.415 122.769 127.773 121.074 128.306 119.564C129.271 116.84 123.332 111.026 114.423 109.456C106.768 108.107 100.612 109.143 99.3158 111.209C100.787 103.632 109.211 98.0979 119.097 98.5718C129.726 99.0846 138 106.35 137.586 114.806C137.168 123.261 128.213 129.697 117.584 129.187C106.952 128.674 98.6796 121.409 99.094 112.954C99.1006 112.829 99.1261 112.707 99.1362 112.582C100.389 119.018 106.849 121.367 111.13 122.068Z" fill="url(#paint8_radial)"/>
<path d="M99.0733 112.3C98.6127 109.543 105.512 107.886 114.423 109.456C123.332 111.026 129.27 116.84 128.306 119.564C127.773 121.074 115.415 122.769 111.13 122.068C106.786 121.356 100.186 118.956 99.0733 112.3Z" fill="url(#paint9_radial)"/>
<path d="M99.8647 106.235C105.007 104.139 111.151 104.244 116.431 105.902C119.263 106.721 122.272 107.744 124.689 109.489C126.938 110.964 128.737 112.691 130.393 114.799C128.899 112.686 127.281 110.907 125.146 109.417C122.521 107.586 119.602 106.383 116.546 105.479C111.147 103.85 105.006 103.834 99.8647 106.235Z" fill="#C27B55"/>
<path d="M100.568 106.993C101.639 106.628 105.478 106.055 107.141 106.063C109.158 106.071 113.183 106.529 115.147 106.99C119.133 107.925 126.025 110.529 128.625 116.287C129.425 118.057 128.56 119.221 128.311 119.47C128.821 116.595 122.963 111.122 114.413 109.648C105.501 108.112 98.604 109.708 99.0691 112.381C100.192 118.836 106.795 121.173 111.141 121.869C116.002 122.649 125.171 120.764 126.38 120.571C123.933 121.65 117.275 122.6 114.587 122.708C113.696 122.745 111.909 122.692 111.021 122.622C103.936 122.062 99.0918 118.2 97.4866 113.231C96.4557 110.037 97.878 107.907 100.568 106.993Z" fill="black"/>
<path d="M189.828 117.056C190.574 114.363 183.885 111.993 174.859 112.623C165.835 113.254 159.322 118.415 159.995 121.225C160.368 122.782 172.481 125.76 176.816 125.511C181.211 125.257 188.025 123.559 189.828 117.056Z" fill="url(#paint10_radial)"/>
<path d="M182.45 118.749C182.246 122.7 178.876 125.734 174.926 125.523C170.976 125.312 167.936 121.936 168.14 117.985C168.344 114.032 171.715 111 175.666 111.211C179.616 111.421 182.655 114.797 182.45 118.749Z" fill="#4E60A3"/>
<path opacity="0.7" d="M174.86 111.243C174.832 111.245 174.803 111.247 174.775 111.249C174.801 111.412 174.827 111.576 174.851 111.739C174.852 111.575 174.857 111.408 174.86 111.243ZM174.849 111.737C174.808 114.094 174.837 116.196 175.194 116.974C175.445 116.155 175.198 114.069 174.849 111.737ZM175.193 116.975C175.133 117.172 175.047 117.304 174.926 117.343C174.804 117.382 174.657 117.322 174.495 117.197C174.532 117.399 174.52 117.554 174.429 117.646C174.338 117.738 174.183 117.754 173.98 117.716C174.106 117.878 174.168 118.023 174.132 118.146C174.092 118.268 173.961 118.354 173.768 118.416C173.952 118.501 174.075 118.601 174.098 118.726C174.121 118.852 174.046 118.99 173.903 119.137C174.107 119.123 174.261 119.157 174.339 119.258C174.419 119.359 174.416 119.515 174.357 119.712C174.532 119.605 174.683 119.563 174.799 119.616C174.918 119.667 174.987 119.807 175.025 120.01C175.13 119.834 175.245 119.724 175.374 119.717C175.5 119.707 175.629 119.801 175.754 119.962C175.767 119.757 175.817 119.608 175.929 119.541C176.037 119.474 176.194 119.496 176.381 119.58C176.297 119.394 176.274 119.239 176.337 119.127C176.404 119.017 176.554 118.964 176.759 118.951C176.597 118.824 176.5 118.698 176.51 118.569C176.516 118.44 176.623 118.325 176.8 118.218C176.597 118.183 176.457 118.114 176.402 117.998C176.349 117.882 176.39 117.728 176.494 117.552C176.298 117.613 176.142 117.62 176.04 117.541C175.938 117.463 175.904 117.309 175.914 117.104C175.773 117.25 175.634 117.327 175.508 117.304C175.382 117.281 175.279 117.163 175.193 116.975ZM175.914 117.103C176.518 116.495 177.269 114.532 178.041 112.306C176.913 114.372 175.961 116.247 175.914 117.103ZM178.041 112.306C178.121 112.165 178.201 112.021 178.278 111.876C178.253 111.867 178.229 111.853 178.204 111.841C178.15 111.998 178.096 112.154 178.041 112.306ZM176.495 117.552C177.314 117.293 178.892 115.904 180.61 114.294C178.65 115.597 176.934 116.814 176.495 117.552ZM180.61 114.294C180.734 114.21 180.86 114.127 180.988 114.044C180.971 114.022 180.954 114.003 180.941 113.983C180.83 114.085 180.721 114.19 180.61 114.294ZM176.799 118.218C177.644 118.368 179.686 117.871 181.957 117.244C179.615 117.489 177.531 117.769 176.799 118.218ZM181.957 117.245C182.09 117.233 182.228 117.219 182.363 117.204C182.358 117.181 182.354 117.158 182.349 117.135C182.22 117.171 182.086 117.209 181.957 117.245ZM176.758 118.949C177.437 119.478 179.476 119.985 181.776 120.484C179.59 119.612 177.615 118.893 176.758 118.949ZM181.776 120.484C181.887 120.529 181.998 120.575 182.109 120.618C182.116 120.598 182.122 120.579 182.128 120.559C182.012 120.535 181.892 120.51 181.776 120.484ZM176.381 119.579C176.737 120.359 178.309 121.758 180.112 123.271C178.582 121.481 177.167 119.926 176.381 119.579ZM180.113 123.269C180.18 123.347 180.247 123.427 180.314 123.505C180.326 123.492 180.339 123.482 180.353 123.469C180.273 123.403 180.19 123.335 180.113 123.269ZM175.758 119.961C175.709 120.819 176.449 122.785 177.346 124.963C176.82 122.667 176.292 120.633 175.758 119.961ZM177.346 124.964C177.366 125.055 177.387 125.148 177.407 125.241C177.425 125.235 177.438 125.231 177.454 125.227C177.418 125.139 177.381 125.049 177.346 124.964ZM175.026 120.009C174.585 120.748 174.327 122.831 174.107 125.176C174.709 122.9 175.186 120.852 175.026 120.009ZM174.107 125.176C174.082 125.265 174.06 125.354 174.037 125.445C174.053 125.45 174.065 125.45 174.083 125.454C174.09 125.362 174.1 125.267 174.107 125.176ZM174.357 119.711C173.621 120.159 172.424 121.887 171.141 123.859C172.732 122.125 174.106 120.532 174.357 119.711ZM171.141 123.859C171.075 123.931 171.005 124.008 170.937 124.08C170.952 124.09 170.964 124.098 170.979 124.111C171.033 124.027 171.089 123.943 171.141 123.859ZM173.903 119.138C173.044 119.192 171.182 120.165 169.129 121.314C171.344 120.519 173.298 119.75 173.903 119.138ZM169.129 121.317C169.023 121.354 168.915 121.392 168.808 121.432C168.814 121.447 168.823 121.465 168.833 121.481C168.931 121.427 169.03 121.371 169.129 121.317ZM173.767 118.417C172.982 118.069 170.88 118.065 168.525 118.129C170.858 118.452 172.948 118.678 173.767 118.417ZM168.525 118.129C168.4 118.111 168.268 118.092 168.143 118.075C168.141 118.097 168.137 118.12 168.139 118.141C168.269 118.136 168.4 118.132 168.525 118.129ZM173.98 117.718C173.448 117.045 171.592 116.066 169.478 115.029C171.391 116.397 173.135 117.57 173.98 117.718ZM169.478 115.029C169.359 114.943 169.236 114.856 169.115 114.77C169.103 114.792 169.09 114.814 169.078 114.834C169.213 114.899 169.349 114.964 169.478 115.029ZM174.495 117.197C174.337 116.354 173.146 114.622 171.758 112.721C172.815 114.824 173.815 116.671 174.495 117.197ZM171.758 112.721C171.685 112.58 171.614 112.436 171.544 112.292C171.52 112.307 171.495 112.321 171.473 112.335C171.568 112.464 171.665 112.593 171.758 112.721Z" fill="url(#paint11_radial)"/>
<path opacity="0.4" d="M176.717 111.362C176.689 111.357 176.661 111.351 176.634 111.346C176.616 111.51 176.598 111.675 176.58 111.838C176.623 111.68 176.67 111.52 176.717 111.362ZM176.578 111.837C175.93 114.101 175.412 116.139 175.555 116.985C176.012 116.258 176.312 114.179 176.578 111.837ZM175.555 116.985C175.446 117.159 175.329 117.264 175.202 117.271C175.075 117.276 174.948 117.181 174.824 117.018C174.809 117.221 174.755 117.369 174.643 117.434C174.532 117.499 174.377 117.474 174.191 117.385C174.271 117.575 174.294 117.731 174.226 117.839C174.156 117.948 174.007 117.997 173.804 118.006C173.962 118.135 174.053 118.263 174.043 118.391C174.034 118.519 173.924 118.633 173.75 118.737C173.951 118.776 174.089 118.849 174.141 118.966C174.192 119.083 174.148 119.235 174.041 119.409C174.238 119.351 174.394 119.35 174.494 119.43C174.594 119.511 174.626 119.664 174.609 119.87C174.756 119.729 174.894 119.651 175.022 119.678C175.146 119.701 175.246 119.825 175.327 120.014C175.392 119.818 175.479 119.689 175.604 119.652C175.727 119.616 175.873 119.678 176.03 119.807C175.999 119.606 176.016 119.449 176.108 119.359C176.198 119.27 176.357 119.258 176.559 119.297C176.436 119.133 176.375 118.987 176.417 118.865C176.456 118.743 176.59 118.659 176.788 118.601C176.603 118.515 176.484 118.412 176.461 118.285C176.441 118.158 176.52 118.021 176.666 117.878C176.46 117.887 176.306 117.852 176.23 117.75C176.152 117.648 176.158 117.49 176.222 117.296C176.045 117.4 175.893 117.439 175.777 117.384C175.658 117.329 175.589 117.188 175.555 116.985ZM176.218 117.296C176.96 116.864 178.192 115.162 179.515 113.214C177.889 114.917 176.485 116.479 176.218 117.296ZM179.515 113.213C179.628 113.097 179.743 112.978 179.855 112.859C179.832 112.842 179.813 112.823 179.791 112.805C179.699 112.943 179.607 113.08 179.515 113.213ZM176.664 117.879C177.521 117.841 179.404 116.906 181.481 115.796C179.249 116.549 177.277 117.28 176.664 117.879ZM181.48 115.795C181.621 115.747 181.765 115.7 181.911 115.652C181.9 115.627 181.888 115.603 181.881 115.58C181.748 115.652 181.615 115.725 181.48 115.795ZM176.784 118.602C177.561 118.966 179.663 119.014 182.02 118.997C179.692 118.626 177.608 118.357 176.784 118.602ZM182.019 118.996C182.15 119.018 182.287 119.04 182.421 119.061C182.423 119.037 182.424 119.015 182.427 118.992C182.292 118.993 182.153 118.995 182.019 118.996ZM176.557 119.298C177.075 119.984 178.914 121.001 181.006 122.077C179.12 120.669 177.399 119.464 176.557 119.298ZM181.005 122.077C181.099 122.15 181.197 122.224 181.292 122.293C181.304 122.276 181.316 122.258 181.324 122.241C181.22 122.189 181.111 122.133 181.005 122.077ZM176.029 119.809C176.17 120.654 177.327 122.412 178.677 124.341C177.661 122.214 176.699 120.346 176.029 119.809ZM178.679 124.337C178.723 124.429 178.767 124.525 178.812 124.618C178.827 124.608 178.841 124.601 178.858 124.592C178.798 124.508 178.735 124.421 178.679 124.337ZM175.327 120.016C175.06 120.83 175.266 122.922 175.567 125.258C175.653 122.904 175.67 120.803 175.327 120.016ZM175.565 125.258C175.562 125.351 175.559 125.446 175.554 125.542C175.572 125.54 175.585 125.539 175.602 125.54C175.591 125.447 175.578 125.351 175.565 125.258ZM174.608 119.872C173.991 120.471 173.202 122.416 172.383 124.625C173.554 122.582 174.545 120.728 174.608 119.872ZM172.383 124.625C172.337 124.704 172.292 124.785 172.246 124.866C172.26 124.874 172.271 124.878 172.287 124.886C172.319 124.801 172.352 124.71 172.383 124.625ZM174.04 119.411C173.214 119.654 171.611 121.013 169.86 122.586C171.847 121.322 173.585 120.14 174.04 119.411ZM169.86 122.586C169.777 122.638 169.689 122.694 169.606 122.746C169.618 122.76 169.629 122.771 169.639 122.786C169.711 122.719 169.787 122.654 169.86 122.586ZM173.75 118.74C172.906 118.571 170.857 119.028 168.574 119.607C170.921 119.412 173.007 119.174 173.75 118.74ZM168.574 119.609C168.462 119.619 168.348 119.626 168.234 119.638C168.238 119.656 168.241 119.674 168.246 119.691C168.355 119.666 168.465 119.636 168.574 119.609ZM173.803 118.009C173.136 117.468 171.106 116.921 168.816 116.374C170.985 117.29 172.945 118.049 173.803 118.009ZM168.816 116.374C168.698 116.323 168.576 116.272 168.459 116.221C168.451 116.243 168.444 116.265 168.438 116.285C168.566 116.314 168.693 116.345 168.816 116.374ZM174.191 117.387C173.852 116.601 172.311 115.173 170.538 113.625C172.032 115.443 173.414 117.027 174.191 117.387ZM170.538 113.626C170.444 113.512 170.35 113.397 170.255 113.283C170.236 113.301 170.22 113.318 170.201 113.335C170.315 113.432 170.43 113.528 170.538 113.626ZM174.824 117.019C174.889 116.163 174.188 114.182 173.337 111.987C173.815 114.292 174.303 116.335 174.824 117.019ZM173.337 111.987C173.304 111.833 173.273 111.674 173.24 111.517C173.214 111.524 173.187 111.532 173.163 111.541C173.221 111.69 173.28 111.84 173.337 111.987Z" fill="url(#paint12_radial)"/>
<path d="M178.098 118.507C178.016 120.057 176.694 121.247 175.144 121.166C173.594 121.085 172.403 119.763 172.484 118.213C172.565 116.663 173.889 115.471 175.438 115.552C176.99 115.634 178.179 116.956 178.098 118.507Z" fill="#4E60A3"/>
<path opacity="0.9" d="M178.098 118.507C178.016 120.057 176.694 121.247 175.144 121.166C173.594 121.085 172.403 119.763 172.484 118.213C172.565 116.663 173.889 115.471 175.438 115.552C176.99 115.634 178.179 116.956 178.098 118.507Z" fill="black"/>
<path opacity="0.5" d="M171.204 121.432C171.757 121.1 172.479 121.283 172.808 121.836C173.14 122.391 172.96 123.111 172.404 123.441C171.848 123.775 171.129 123.594 170.8 123.038C170.467 122.484 170.649 121.763 171.204 121.432Z" fill="url(#paint13_linear)"/>
<path opacity="0.5" d="M177.528 118.085C177.205 118.515 176.351 118.419 175.62 117.87C174.885 117.321 174.554 116.525 174.876 116.096L174.877 116.094C175.198 115.664 176.053 115.76 176.785 116.31C177.519 116.858 177.851 117.653 177.528 118.085Z" fill="url(#paint14_linear)"/>
<path opacity="0.75" d="M180.999 117.072C180.265 118.077 178.513 118.048 177.084 117.007C175.657 115.966 175.092 114.307 175.826 113.302C176.557 112.297 178.31 112.327 179.739 113.367C181.166 114.409 181.729 116.069 180.999 117.072Z" fill="url(#paint15_linear)"/>
<path d="M177.404 85.1673C158.275 84.1647 151.452 98.2667 150.55 115.484C149.647 132.702 161.511 142.861 174.038 143.39C184.531 145.55 198.238 131.1 199.884 118.152C200.787 100.936 191.119 85.886 177.404 85.1673ZM176.816 125.511C172.481 125.76 160.368 122.782 159.995 121.225C159.321 118.415 165.835 113.254 174.859 112.623C183.885 111.993 190.574 114.364 189.828 117.056C188.025 123.559 181.211 125.257 176.816 125.511Z" fill="#F0C7B1"/>
<path d="M176.816 125.511C172.481 125.76 160.368 122.782 159.995 121.225C159.321 118.415 165.835 113.254 174.859 112.623C182.613 112.082 188.628 113.757 189.7 115.946C189.029 108.257 181.23 101.872 171.349 101.31C160.724 100.709 151.736 107.07 151.264 115.523C150.796 123.975 159.029 131.312 169.653 131.916C180.28 132.517 189.267 126.156 189.739 117.704C189.745 117.579 189.732 117.455 189.735 117.33C187.815 123.6 181.146 125.261 176.816 125.511Z" fill="url(#paint16_radial)"/>
<path d="M189.828 117.056C190.574 114.363 183.885 111.993 174.859 112.623C165.835 113.254 159.322 118.415 159.995 121.225C160.368 122.782 172.481 125.76 176.816 125.511C181.211 125.257 188.025 123.559 189.828 117.056Z" fill="url(#paint17_radial)"/>
<path d="M189.673 110.942C184.778 108.32 178.657 107.781 173.233 108.878C170.331 109.397 167.231 110.101 164.644 111.583C162.254 112.815 160.284 114.344 158.417 116.267C160.124 114.323 161.919 112.722 164.197 111.464C167 109.917 170.028 109.026 173.162 108.447C178.703 107.39 184.812 108.017 189.673 110.942Z" fill="#C27B55"/>
<path d="M188.896 111.622C187.869 111.147 184.111 110.176 182.456 110.01C180.449 109.807 176.398 109.842 174.397 110.095C170.335 110.609 163.209 112.478 160.021 117.932C159.041 119.609 159.779 120.857 160 121.13C159.794 118.218 166.192 113.387 174.849 112.815C183.873 112.219 190.565 114.527 189.823 117.137C188.032 123.439 181.22 125.073 176.826 125.312C171.91 125.579 162.988 122.746 161.806 122.428C164.127 123.756 170.648 125.397 173.31 125.785C174.193 125.915 175.975 126.049 176.866 126.073C183.971 126.257 189.192 122.922 191.308 118.148C192.667 115.079 191.475 112.812 188.896 111.622Z" fill="black"/>
<path d="M191.62 154.762C190.248 181.743 167.242 202.509 140.232 201.13C113.227 199.759 92.444 176.773 93.8165 149.786C95.1886 122.807 118.198 101.956 145.207 103.328C172.214 104.702 192.995 127.777 191.62 154.762Z" fill="url(#paint18_radial)"/>
<path d="M191.194 83.0163C189.9 107.716 168.828 126.69 144.129 125.396C119.428 124.101 100.454 103.029 101.748 78.3286C103.043 53.6284 124.116 34.6551 148.816 35.9495C173.515 37.244 192.489 58.3161 191.194 83.0163Z" fill="url(#paint19_radial)"/>
<path d="M90.3402 94.4603C98.4934 99.1192 108.042 100.695 127.682 104.11C128.323 104.247 128.778 104.391 129.193 104.418C131.182 104.485 132.967 102.757 132.778 101.12C132.165 94.8859 98.644 96.0114 90.3402 94.4603Z" fill="#2A232B"/>
<path d="M200.848 100.277C192.257 104.049 182.598 104.606 162.712 105.926C162.06 105.994 161.593 106.09 161.177 106.072C159.192 105.929 157.595 104.022 157.954 102.414C159.209 96.2787 192.428 100.942 200.848 100.277Z" fill="#2A232B"/>
<path d="M140.534 121.649C140.534 121.649 138.171 134.82 137.288 137.362C135.346 142.943 129.218 150.592 130.138 154.243C131.978 161.541 138.846 160.072 142.409 160.232C145.706 160.379 151.939 162.588 153.484 157.979C153.983 156.491 153.237 152.625 153.237 152.625C153.237 152.625 149.89 156.171 142.48 155.37C140.366 155.141 137.04 152.578 137.177 149.218C137.364 144.663 139.766 140.941 140.483 136.447C141.026 133.034 140.534 121.649 140.534 121.649Z" fill="#E1AC8F"/>
<path d="M148.605 158.481C149.887 158.548 150.214 158.955 150.188 159.436C150.163 159.918 149.725 160.639 148.514 160.221C147.181 159.765 144.812 159.818 144.812 159.818C144.812 159.818 147.32 158.414 148.605 158.481ZM136.354 157.839C135.07 157.773 134.705 158.145 134.679 158.628C134.653 159.108 135.003 159.82 136.263 159.583C137.652 159.318 139.985 159.569 139.985 159.569C139.985 159.569 137.639 157.911 136.354 157.839ZM153.236 152.625C153.236 152.625 154.891 155.023 154.395 157.439C153.912 159.785 150.269 160.644 150.269 160.644C150.269 160.644 152.855 158.967 153.271 156.788C153.466 155.767 153.236 152.625 153.236 152.625ZM131.436 149.107C131.436 149.107 129.972 152.264 130.244 154.249C130.739 157.834 134.401 159.447 134.401 159.447C134.401 159.447 132.197 156.893 131.481 154.699C130.696 152.302 131.436 149.107 131.436 149.107Z" fill="#C27B55"/>
<path d="M148.77 154.115C150.07 153.12 150.227 152.522 149.99 152.111C149.754 151.7 149.021 151.409 147.913 152.634C146.69 153.981 144.14 154.893 144.14 154.893C144.14 154.893 147.471 155.108 148.77 154.115Z" fill="#FFE4D6"/>
<path d="M133.809 181.278C138.29 179.743 138.185 181.065 143.571 180.977C145.402 180.941 147.188 181.094 148.699 182.381C147.427 183.834 142.871 188.857 141.194 192.093C137.521 185.515 137.019 184.831 133.809 181.278Z" fill="#2A232B"/>
<path d="M138.98 185.962C137.637 183.069 137.806 183.496 136.883 181.929C137.91 183.107 138.45 183.757 138.98 185.962ZM139.387 182.527C139.507 183.442 140.319 188.017 140.557 188.95C140.508 186.245 140.239 184.975 139.387 182.527ZM141.386 182.5C141.331 182.174 141.403 181.939 141.403 181.939C141.403 181.939 141.283 182.172 141.29 182.507C141.279 183.391 141.386 184.545 141.386 184.545C141.401 185.18 141.506 186.142 141.506 186.142C141.619 184.904 141.634 184.152 141.386 182.5ZM143.805 182.663C142.699 184.602 142.283 185.692 142.261 188.394C142.838 185.602 142.906 185.211 143.805 182.663ZM146.031 182.409C145.044 182.979 144.287 184.41 144.505 185.964C144.589 184.581 145.3 183.112 146.031 182.409Z" fill="#1B141C"/>
<path d="M143.277 180.865C138.91 181.139 138.591 179.472 133.595 181.231C137.18 185.174 137.452 185.69 141.192 192.356C142.811 189.068 147.838 183.52 148.866 182.378C146.947 180.663 144.474 180.844 143.277 180.865ZM141.053 191.595C139.526 188.55 138.647 186.387 137.026 184.46C136.924 184.347 134.232 181.408 134.077 181.4C138.318 180.342 137.148 181.441 145.138 181.405C146.28 181.525 147.511 181.769 148.482 182.418C143.842 186.743 144.767 186.672 142.642 189.107C141.98 189.874 141.38 190.596 141.053 191.595Z" fill="#0C080C"/>
<path d="M78.6761 120.745C77.0016 114.749 74.2736 105.738 69.214 101.969C66.9324 84.1684 61.9842 60.8404 81.8335 39.984C86.064 35.5214 91.4703 31.6945 97.6392 31.0921C113.932 9.50755 132.558 0.122541 173.282 15.7883C234.911 37.363 222.052 82.1926 218.428 109.392C215.313 112.335 212.054 120.936 210.209 126.133C210.389 96.0122 201.319 52.8257 167.877 51.0731C150.932 50.185 147.168 56.7732 123.228 52.792C78.9338 47.0289 84.4249 100.433 78.6761 120.745Z" fill="#2A232B"/>
<path d="M151.691 39.6197C134.172 41.7738 124.994 34.1043 129.259 21.1731C122.283 25.1007 119.495 31.7951 120.124 37.9653C116.261 33.0271 116.856 24.9921 119.781 15.8928C109.68 25.6218 107.484 34.5488 109.29 43.8063C103.654 36.9838 99.6982 28.1314 106.068 20.9419C103.142 23.7938 100.369 27.0329 97.664 30.6175C97.0883 30.6734 92.5857 33.0026 92.5857 33.0026C96.086 33.1861 103.513 37.1391 107.523 44.7326C102.196 42.7505 94.4411 44.3089 91.2339 46.724C79.5318 55.5402 72.9876 70.7654 78.851 119.53C82.286 105.396 82.1631 91.5404 84.8234 80.1419C89.2731 61.0687 98.5103 48.7209 123.254 52.3174C147.192 56.2986 150.958 49.7105 167.903 50.5985C201.343 52.351 210.415 95.5376 210.235 125.659C212.079 120.461 215.339 111.86 218.454 108.918C219.049 104.453 219.17 104.746 219.892 99.5131C212.311 53.6111 188.431 35.1029 151.691 39.6197Z" fill="#0C080C"/>
<path d="M73.6627 86.4071C71.788 37.0419 97.725 38.5829 101.13 41.5059C96.2144 40.6623 79.6203 35.3679 73.6627 86.4071ZM133.295 26.7482C135.019 31.7238 138.288 35.3751 145.794 36.2456C145.794 36.2456 147.087 37.2414 166.68 34.836C169.439 34.4891 171.427 34.4331 172.354 34.4769C158.162 32.432 140.336 40.7682 133.295 26.7482ZM208.281 51.1361C208.281 51.1361 207.855 50.395 207.092 49.3565C196.576 34.5217 177.861 33.2 178.931 34.5213C177.887 33.0436 201.855 38.5654 209.969 58.0854C215.183 68.9255 211.496 61.2054 215.878 71.1384C212.289 57.4069 210.24 54.4676 208.281 51.1361ZM184.748 39.0357C184.748 39.0357 183.25 38.4992 181.714 38.0851C180.18 37.6734 178.625 37.3623 178.626 37.3624C174.385 36.5361 170.817 36.6242 168.653 36.6746C176.042 37.1372 187.189 39.4507 193.056 44.5309C190.606 41.7752 187.741 39.9903 184.748 39.0357ZM72.3557 65.7095C70.1442 77.3062 69.013 90.9278 74.3722 101.393C70.9567 91.5141 71.6736 76.1462 72.3557 65.7095ZM116.483 49.1546C117.454 49.4124 117.82 49.318 117.82 49.318C117.82 49.318 117.487 49.3352 116.568 48.9498C108.521 46.0454 105.604 30.2611 119.482 16.4584C103.118 27.9077 106.282 47.2519 116.483 49.1546ZM128.79 21.4296C124.155 24.6726 120.932 28.4657 120.124 33.8492C118.924 42.2376 123.183 49.3993 132.344 50.6161C118.009 46.4841 119.343 30.3497 128.79 21.4296ZM160.433 29.2168C160.433 29.2168 150.286 29.3141 140.874 24.7536C150.508 31.0585 160.92 31.0386 172.918 29.4227C167.905 29.3776 165.318 29.3688 160.433 29.2168Z" fill="#1B141C"/>
<path d="M176.616 27.3251C164.179 27.5427 161.356 26.7896 156.09 23.4594C162.822 26.8378 165.446 26.1896 176.616 27.3251ZM132.555 35.1153C126.281 27.9125 128.618 24.7104 128.618 24.7104C128.618 24.7104 125.006 32.9664 135.809 38.9368C141.807 42.6212 152.781 39.8371 155.942 39.5961C151.848 39.3672 138.429 41.6094 132.555 35.1153ZM99.8119 43.8286C77.481 42.8723 75.3132 77.5961 77.0256 99.7548C78.7235 78.7675 80.01 45.8224 99.8119 43.8286ZM218.384 94.4472C216.479 78.2878 210.793 59.4703 197.23 50.4301C208.124 60.1101 215.303 80.7136 218.384 94.4472ZM218.184 72.7541C218.122 57.001 210.137 44.5244 198.477 35.4404C208.613 45.8855 216.327 58.0753 218.184 72.7541ZM189.693 28.8069C175.975 20.0564 163.583 13.516 146.631 17.581C162.03 15.8575 174.514 21.2176 189.693 28.8069ZM129.542 12.7987C117.414 13.3064 107.993 18.6653 106.445 30.7105C108.996 18.7095 118.372 14.513 129.542 12.7987ZM119.509 30.4564C122.924 17.0692 132.335 14.77 143.331 13.3899C131.871 13.3333 120.695 16.8855 119.509 30.4564Z" fill="#3A353A"/>
<path d="M173.436 14.9795C132.064 -0.936625 113.472 9.20122 97.4727 30.2762C91.3367 30.8898 85.8318 34.7965 81.5987 39.2625C61.5772 60.2989 66.6338 83.9327 68.9033 101.692C74.2902 105.581 77.0159 115.526 78.6851 121.554C85.1184 101.828 78.3687 46.8366 123.194 52.6718C147.845 56.7704 151.21 49.7105 169.274 51.0446C200.003 51.3444 210.563 97.0294 209.843 127.854C211.429 123.304 215.249 112.309 218.79 109.093C221.795 86.3086 237.422 37.3798 173.436 14.9795ZM217.597 109.509C214.561 112.77 212.082 118.72 210.652 122.91C212.44 94.4335 202.212 48.3963 169.459 47.7298C150.453 46.43 147.692 53.3339 123.689 49.6243C101.635 46.8541 88.5372 59.3882 83.5817 79.4646C80.623 91.0579 81.6677 106.676 78.8635 119.291C77.3858 113.464 74.7801 105.612 69.9522 101.986C69.1041 79.4222 64.9276 61.9526 83.0678 40.6669C86.9173 36.1712 93.1279 32.0576 98.9856 31.073C107.727 22.8071 118.709 -2.95077 172.472 17.6317C229.936 37.8294 221.374 79.8981 217.597 109.509Z" fill="black"/>
<path opacity="0.2" d="M201.769 121.29C201.515 123.621 201.098 126.098 200.675 128.707C198.826 140.258 193.621 143.274 170.678 140.409C163.193 139.479 157.741 134.9 155.317 127.526C154.296 124.423 153.432 120.826 153.02 117.264C164.9 110.113 191.984 111.306 201.769 121.29ZM87.2305 115.287C87.2392 117.632 87.3948 120.139 87.5435 122.778C88.1751 134.459 93.036 138.002 116.152 137.552C123.694 137.409 129.595 133.425 132.776 126.344C134.117 123.365 135.352 119.878 136.133 116.379C125.066 108.026 98.0059 106.381 87.2305 115.287Z" fill="white"/>
<path opacity="0.4" d="M201.769 121.29C191.984 111.306 164.888 110.113 153.032 117.265C152.735 114.726 152.676 112.199 152.988 109.896C154.263 100.623 169.459 102.531 178.457 102.656C200.709 102.961 202.988 110.352 201.769 121.29ZM136.936 109.043C136.637 99.6871 121.325 99.9968 112.351 99.1797C90.2011 97.1698 87.1496 104.281 87.2192 115.275C97.9946 106.368 125.067 108.014 136.11 116.366C136.671 113.872 137.005 111.378 136.936 109.043Z" fill="white"/>
<path d="M204.677 108.933C204.026 107.201 203.081 105.621 201.852 104.42C199.041 101.69 193.562 101.044 188.437 100.476C183.455 99.9403 173.973 99.2161 167.619 99.2897C151.105 99.5006 150.998 106.79 150.998 106.79C148.84 106.677 141.421 106.288 139.263 106.175C139.263 106.175 139.919 98.9024 123.517 96.9784C117.193 96.2404 107.701 95.9582 102.689 95.9825C97.5334 95.9994 92.0042 96.0803 88.9353 98.5026C87.576 99.5675 86.4829 101.029 85.6541 102.696L75.9854 100.299L75.736 105.058C84.2008 107.152 86.3796 107.792 87.5759 107.783C87.0897 111.357 86.6247 117.719 87.1349 122.816C88.3421 134.922 93.2294 138.419 116.166 137.971C123.78 137.82 129.967 133.636 133.174 126.509C135.693 120.9 137.487 115.864 137.418 109.654L152.493 110.444C151.775 116.613 153.033 121.821 154.952 127.65C157.385 135.073 163.112 139.881 170.669 140.827C193.445 143.671 198.671 140.704 201.125 128.79C202.165 123.774 202.368 117.399 202.258 113.793C203.446 113.927 205.68 113.518 214.318 112.321L214.567 107.562L204.677 108.933ZM132.215 126.1C129.141 132.958 123.426 136.821 116.124 136.952C93.2832 137.394 89.242 133.953 88.121 122.713C87.5277 116.69 88.4236 108.952 88.6053 107.765C88.8338 107.742 88.9788 107.713 88.9932 107.666C90.6907 100.149 97.2119 98.0275 124.062 100.714C128.499 101.162 132.26 102.196 134.254 104.537C135.426 105.902 136.521 107.837 136.319 109.632L136.367 109.635C136.447 112.676 135.424 118.961 132.215 126.1ZM200.095 128.593C197.805 139.654 193.426 142.654 170.757 139.827C163.509 138.921 158.229 134.483 155.888 127.352C153.443 119.917 153.095 113.561 153.492 110.544L153.54 110.547C153.526 108.752 154.817 106.942 156.126 105.695C158.354 103.576 162.202 102.94 166.662 102.959C193.645 103.105 199.898 105.885 200.812 113.538C200.821 113.587 200.962 113.642 201.187 113.678C201.232 114.876 201.326 122.666 200.095 128.593Z" fill="#26120B"/>
<path d="M151.029 106.433C151.31 104.941 153.343 99.4744 167.595 99.3005C173.961 99.2275 183.431 99.939 188.413 100.487C193.538 101.043 199.029 101.701 201.827 104.431C203.068 105.632 204.002 107.2 204.652 108.944C200.601 101.365 192.81 101.698 188.303 101.211C185.568 100.912 180.914 100.501 176.06 100.246C172.757 100.073 169.914 99.996 167.628 100.032C159.18 100.127 154.43 101.325 151.029 106.433ZM139.246 105.815C139.122 104.302 137.672 98.6531 123.516 96.9904C117.193 96.2524 107.7 95.9702 102.688 95.9945C97.5328 96.0113 92.0036 96.0923 88.9347 98.5146C87.5754 99.5794 86.4823 101.041 85.6535 102.708C90.475 95.5936 98.1883 96.7393 102.721 96.7257C105.473 96.7145 110.144 96.7919 114.998 97.0463C118.302 97.2194 121.137 97.4397 123.406 97.7141C131.798 98.6921 136.397 100.38 139.246 105.815Z" fill="#351D15"/>
<defs>
<linearGradient id="paint0_linear" x1="140.471" y1="220.244" x2="140.471" y2="168.891" gradientUnits="userSpaceOnUse">
<stop stop-color="#E1AC8F" stop-opacity="0.8"/>
<stop offset="0.7" stop-color="#C27B55"/>
</linearGradient>
<linearGradient id="paint1_linear" x1="140.971" y1="185.624" x2="141.158" y2="182.046" gradientUnits="userSpaceOnUse">
<stop offset="0.1" stop-color="#E8B9A0"/>
<stop offset="1" stop-color="#E1AC8F"/>
</linearGradient>
<radialGradient id="paint2_radial" cx="0" cy="0" r="1" gradientUnits="userSpaceOnUse" gradientTransform="translate(112.657 115.336) rotate(177.019) scale(18.0525)">
<stop stop-color="white"/>
<stop offset="0.315" stop-color="#FCFDFD"/>
<stop offset="0.504" stop-color="#F4F7F8"/>
<stop offset="0.66" stop-color="#E5ECEF"/>
<stop offset="0.76" stop-color="#D8E2E7"/>
</radialGradient>
<radialGradient id="paint3_radial" cx="0" cy="0" r="1" gradientUnits="userSpaceOnUse" gradientTransform="translate(113.78 115.162) rotate(-11.4848) scale(7.07521 7.07678)">
<stop stop-color="white"/>
<stop offset="1" stop-color="white" stop-opacity="0"/>
</radialGradient>
<radialGradient id="paint4_radial" cx="0" cy="0" r="1" gradientUnits="userSpaceOnUse" gradientTransform="translate(113.78 115.168) rotate(3.51202) scale(7.0711 7.07125)">
<stop stop-color="white"/>
<stop offset="1" stop-color="white" stop-opacity="0"/>
</radialGradient>
<linearGradient id="paint5_linear" x1="109.632" y1="120.023" x2="110.819" y2="118.75" gradientUnits="userSpaceOnUse">
<stop stop-color="white"/>
<stop offset="1" stop-color="white" stop-opacity="0"/>
</linearGradient>
<linearGradient id="paint6_linear" x1="115.423" y1="113.184" x2="114.473" y2="114.202" gradientUnits="userSpaceOnUse">
<stop stop-color="white"/>
<stop offset="1" stop-color="white" stop-opacity="0"/>
</linearGradient>
<linearGradient id="paint7_linear" x1="118.468" y1="110.385" x2="116.281" y2="112.731" gradientUnits="userSpaceOnUse">
<stop stop-color="white"/>
<stop offset="1" stop-color="white" stop-opacity="0"/>
</linearGradient>
<radialGradient id="paint8_radial" cx="0" cy="0" r="1" gradientUnits="userSpaceOnUse" gradientTransform="translate(118.466 113.285) rotate(4.19182) scale(19.1119 15.2887)">
<stop stop-color="#E1AC8F"/>
<stop offset="0.7" stop-color="#E1AC8F" stop-opacity="0.3"/>
<stop offset="1" stop-color="#F0C7B1" stop-opacity="0"/>
</radialGradient>
<radialGradient id="paint9_radial" cx="0" cy="0" r="1" gradientUnits="userSpaceOnUse" gradientTransform="translate(106.622 146.594) rotate(3) scale(36.4438)">
<stop offset="0.95" stop-opacity="0"/>
<stop offset="1" stop-opacity="0.2"/>
</radialGradient>
<radialGradient id="paint10_radial" cx="0" cy="0" r="1" gradientUnits="userSpaceOnUse" gradientTransform="translate(176.002 118.654) rotate(8.9814) scale(18.0513)">
<stop stop-color="white"/>
<stop offset="0.316" stop-color="#FCFDFD"/>
<stop offset="0.505" stop-color="#F4F7F8"/>
<stop offset="0.661" stop-color="#E5ECEF"/>
<stop offset="0.76" stop-color="#D8E2E7"/>
</radialGradient>
<radialGradient id="paint11_radial" cx="0" cy="0" r="1" gradientUnits="userSpaceOnUse" gradientTransform="translate(175.199 118.381) rotate(-11.4847) scale(7.07534 7.07689)">
<stop stop-color="white"/>
<stop offset="1" stop-color="white" stop-opacity="0"/>
</radialGradient>
<radialGradient id="paint12_radial" cx="0" cy="0" r="1" gradientUnits="userSpaceOnUse" gradientTransform="translate(175.199 118.387) rotate(3.51202) scale(7.07135 7.07149)">
<stop stop-color="white"/>
<stop offset="1" stop-color="white" stop-opacity="0"/>
</radialGradient>
<linearGradient id="paint13_linear" x1="171.052" y1="123.242" x2="172.238" y2="121.969" gradientUnits="userSpaceOnUse">
<stop stop-color="white"/>
<stop offset="1" stop-color="white" stop-opacity="0"/>
</linearGradient>
<linearGradient id="paint14_linear" x1="176.842" y1="116.403" x2="175.893" y2="117.421" gradientUnits="userSpaceOnUse">
<stop stop-color="white"/>
<stop offset="1" stop-color="white" stop-opacity="0"/>
</linearGradient>
<linearGradient id="paint15_linear" x1="179.888" y1="113.604" x2="177.701" y2="115.949" gradientUnits="userSpaceOnUse">
<stop stop-color="white"/>
<stop offset="1" stop-color="white" stop-opacity="0"/>
</linearGradient>
<radialGradient id="paint16_radial" cx="0" cy="0" r="1" gradientUnits="userSpaceOnUse" gradientTransform="translate(170.437 116.008) rotate(-178.192) scale(19.1119 15.2887)">
<stop stop-color="#E1AC8F"/>
<stop offset="0.7" stop-color="#E1AC8F" stop-opacity="0.3"/>
<stop offset="1" stop-color="#F0C7B1" stop-opacity="0"/>
</radialGradient>
<radialGradient id="paint17_radial" cx="0" cy="0" r="1" gradientUnits="userSpaceOnUse" gradientTransform="translate(178.736 150.374) rotate(-177) scale(36.4437)">
<stop offset="0.95" stop-opacity="0"/>
<stop offset="1" stop-opacity="0.2"/>
</radialGradient>
<radialGradient id="paint18_radial" cx="0" cy="0" r="1" gradientUnits="userSpaceOnUse" gradientTransform="translate(142.721 152.23) rotate(3) scale(48.9642)">
<stop stop-color="#FFE4D6" stop-opacity="0.5"/>
<stop offset="0.9" stop-color="#F0C7B1" stop-opacity="0"/>
</radialGradient>
<radialGradient id="paint19_radial" cx="0" cy="0" r="1" gradientUnits="userSpaceOnUse" gradientTransform="translate(146.471 80.6737) rotate(3) scale(44.1872)">
<stop stop-color="#FFE4D6" stop-opacity="0.5"/>
<stop offset="0.9" stop-color="#F0C7B1" stop-opacity="0"/>
</radialGradient>
</defs>
</svg>
